<?xml version="1.0" encoding="UTF-8"?>
<svg id="Capa_2" data-name="Capa 2" xmlns="http://www.w3.org/2000/svg" viewBox="0 0 131.1 110.5">
  <defs>
    <style>
      .cls-1 {
        fill: #662715;
      }
    </style>
  </defs>
  <g id="Capa_1-2" data-name="Capa 1">
    <path class="cls-1" d="M51.59,107.78v-38.83c0-.76-.32-1.48-.87-1.99L.87,20.78c-.55-.51-.87-1.24-.87-1.99V2.71C0,1.21,1.21,0,2.71,0h125.67c1.5,0,2.71,1.21,2.71,2.71v16.08c0,.75-.31,1.47-.86,1.98l-49.86,46.52c-.55.51-.86,1.23-.86,1.98v24.76c0,.95-.49,1.82-1.3,2.32l-22.49,13.73c-1.81,1.1-4.13-.2-4.13-2.32Z"/>
  </g>
</svg>